<svg xmlns="http://www.w3.org/2000/svg" viewBox="0 0 600 109.03"><defs><style>.cls-1{fill:#2970b4;}.cls-2{fill:#df4c73;}</style></defs><title>cs-logo</title><g id="Layer_2" data-name="Layer 2"><g id="Layer_1-2" data-name="Layer 1"><path class="cls-1" d="M347.35,109h-7.7L365.3,0H373Z"/><path class="cls-2" d="M23.26,72.41V67.49h6.27v4.92q0,6-3.67,9.26t-11,3.27q-7.33,0-11.09-3.27T0,72.41V36.62q0-6,3.67-9.26t11-3.27c4.9,0,8.59,1.09,11.1,3.27s3.76,5.27,3.76,9.26v8.5H23.26v-8.5q0-7.15-8.5-7.16t-8.5,7.16V72.41q0,7.17,8.5,7.16T23.26,72.41Z"/><path class="cls-2" d="M74.27,36.62V72.41q0,6-3.81,9.26T59.1,84.94q-7.56,0-11.41-3.27t-3.85-9.26V36.62q0-6,3.81-9.26T59,24.09q7.56,0,11.41,3.27T74.27,36.62ZM68,72.41V36.62q0-7.15-9-7.16t-8.94,7.16V72.41q0,7.17,8.94,7.16T68,72.41Z"/><path class="cls-2" d="M89.92,72.41v-47h6.27v47a8.38,8.38,0,0,0,1.47,5.28c1,1.25,2.79,1.88,5.42,1.88a10.47,10.47,0,0,0,7.24-3q3.32-3,3.31-5.91V25.44h6.27V83.6h-2.69l-2.32-5.73A15.45,15.45,0,0,1,109.83,83a12.47,12.47,0,0,1-6.75,1.93Q89.93,84.94,89.92,72.41Z"/><path class="cls-2" d="M144.06,83.6h-6.27V25.44h2.69l2.59,6.62q2.87-8,9.13-8,10.65,0,10.65,11.64v5.81h-6V35.37q0-5.91-4.92-5.91c-2,0-3.77,1.14-5.41,3.4s-2.46,5.55-2.46,9.85Z"/><path class="cls-2" d="M172.24,25.44h19.68v5.37H178.5V73.67a6.68,6.68,0,0,0,1.3,4.2,4.35,4.35,0,0,0,3.67,1.7,4.26,4.26,0,0,0,3.62-1.65,6.83,6.83,0,0,0,1.26-4.25V63h6.26V73.31q0,5.63-3,8.63a11,11,0,0,1-8.1,3,11.22,11.22,0,0,1-8.18-3q-3.09-3-3.09-8.63Z"/><path class="cls-2" d="M213.4,83.6h-6.26V25.44h2.68l2.24,5.81q4.29-7.16,11.9-7.16,13.15,0,13.15,12.53v47h-6.26v-47a8.33,8.33,0,0,0-1.48-5.28c-1-1.25-2.79-1.88-5.41-1.88a10.51,10.51,0,0,0-7.25,3q-3.32,3-3.31,5.9Z"/><path class="cls-2" d="M276,72.41V67.49h6.27v4.92q0,6-3.67,9.26t-11,3.27q-7.33,0-11.09-3.27t-3.76-9.26V36.62q0-6,3.67-9.26t11-3.27q7.33,0,11.1,3.27t3.76,9.26V56.31H259v16.1q0,7.17,8.5,7.16T276,72.41ZM259,36.62V50.94h17V36.62q0-7.15-8.5-7.16T259,36.62Z"/><path class="cls-2" d="M314.15,83.6h-6.26V67.13q-12.18-1.34-12.17-12.35V25.44H302V54.78q0,7.17,8.95,7.16t8.95-7.16V25.44h6.26V54.78q0,11-12,12.35Z"/><path class="cls-2" d="M418.1,72.41q0,12.53-15.12,12.53T387.86,72.41v-7.6h6.26v8a6,6,0,0,0,2.24,5c1.49,1.19,3.69,1.79,6.62,1.79s5.13-.6,6.62-1.79a5.91,5.91,0,0,0,2.23-4.88,14.68,14.68,0,0,0-.67-4.92,11.12,11.12,0,0,0-2.72-3.89L392.69,48.7a16.33,16.33,0,0,1-3.81-5.41,18.67,18.67,0,0,1-1-6.67q0-6,3.71-9.26t11.23-3.27q14.4,0,14.4,12.53v7.61h-6.26v-8a6.24,6.24,0,0,0-2.1-5c-1.4-1.19-3.51-1.79-6.31-1.79s-4.91.6-6.31,1.79a6.14,6.14,0,0,0-2.1,4.92,15.63,15.63,0,0,0,.62,4.92,9.79,9.79,0,0,0,2.78,3.76l16,15.39a17.51,17.51,0,0,1,3.58,5.51A19.17,19.17,0,0,1,418.1,72.41Z"/><path class="cls-2" d="M463.28,36.62V72.41q0,6-3.8,9.26t-11.36,3.27q-7.58,0-11.41-3.27t-3.85-9.26V36.62q0-6,3.8-9.26T448,24.09q7.56,0,11.4,3.27T463.28,36.62ZM457,72.41V36.62q0-7.15-8.95-7.16t-8.95,7.16V72.41q0,7.17,8.95,7.16T457,72.41Z"/><path class="cls-2" d="M479.83,83.6V25.44h6.27V78.23h16.37V83.6Z"/><path class="cls-2" d="M541,83.6h-2.69l-2.33-5.73A14.7,14.7,0,0,1,531,83a12.21,12.21,0,0,1-6.71,1.93q-12.88,0-12.88-12.53V63.46q0-12.52,12.88-12.52h10.38V36.26a6.28,6.28,0,0,0-2.06-5c-1.37-1.19-3.39-1.79-6.08-1.79q-8,0-8,6.8v5.28h-6.27V36.62q0-6,3.54-9.26t10.69-3.27q7.15,0,10.78,3.27T541,36.62Zm-6.27-27.29H524.3c-2.5,0-4.23.62-5.19,1.88a8.56,8.56,0,0,0-1.43,5.27v8.95a8.57,8.57,0,0,0,1.43,5.28q1.44,1.88,5.19,1.88a10.23,10.23,0,0,0,7-2.91q3.22-2.91,3.4-5.77Z"/><path class="cls-2" d="M564.21,83.6H558V25.44h2.68l2.6,6.62q2.87-8,9.12-8Q583,24.09,583,35.73v5.81h-6V35.37c0-3.94-1.65-5.91-4.92-5.91-2,0-3.78,1.14-5.42,3.4s-2.46,5.55-2.46,9.85Z"/><path class="cls-2" d="M600,83.6h-6.26V25.44H600Z"/></g></g></svg>