<svg xmlns="http://www.w3.org/2000/svg" viewBox="0 0 1618.58 511.39"><defs><style>.cls-1{fill:#e2eff9;}</style></defs><title>lines-lgt</title><g id="Layer_2" data-name="Layer 2"><g id="Layer_1-2" data-name="Layer 1"><path class="cls-1" d="M1618.09,507.62l.49-.08L1537.9,49.24l-.49.08-.33-.37-42.73,38.22L1476.2.2l-.49.1-.4-.3-249,326.7L1144.69,113l-.47.18-.18-.47L930.78,191.61l.17.47-.47-.14L867.61,407.22l-137.94-.44L516.3,329.7l-.17.47-.24-.43L352.72,419.48l-197.89-103-.23.45-.39-.32L12.35,492l-1.92,0v1l1.1,0L0,507.31l.78.63L12.84,493l107-1.48-54.7,16.92.29,1,58-17.92,166.49-2.31-19.26,21.43.75.66,19.87-22.11,61.73-.85.25,22.64,1,0L354,488.29l46.73-.64,17,23.58.81-.58-16.56-23,196.81-2.73L576,510.61l.75.66,22-24.89-7,24.42,1,.28L600,485.7l13,23.85.88-.48-13.3-24.5,126.87-75.42L644.94,510.62l.77.63L729.65,408l111.5,89.82-3.79,13,.48.14.21.45,12.6-5.94,7.3,5.88.31-.39.34.37,21.54-19.78,138-65.09,31.68,84.67.94-.35L1019,426l205.52-97L1088.67,507.32l.8.61,136.9-179.64,391.51,179.79Zm-81-457.33,80.36,456.48-39.24-18L1494.59,88.3ZM970.35,408.05Zm25.89-42.93L1062.36,253l162.52,74.63-217.17,68.19Zm10.51,31-35.31,11.09,24.14-40.95Zm54.7-143.54L995.78,363.92,931.85,193ZM932.26,192.13l210.81-78L1062,251.69Zm644.8,296.1L1227.13,327.54l266.6-238.47ZM1493.49,87.94,1229.76,323.85,1475.44,1.48ZM1225.24,326.67l-162.37-74.56,81.25-137.81ZM931,193.66,995.13,365l-25.07,42.51-101.41-.32Zm38.06,214.88-89.49,82.15-28.79,13.59-8.49-6.84,26.05-89.22ZM509,434.4l.07.5,59.42-7.31,30.42,56L354.07,419.88l161.5-88.83-7.08,103.32Zm.54-.57,7-101.91L568,426.65Zm7.68-102.74,210.24,76L569,426.52ZM13.65,492,154.73,317.53l196.69,102.4L123.26,490.49Zm113.15-1.57,224.35-69.38-60.33,67.11Zm165.38-2.29,60.06-66.82.74,66Zm61.8-.86-.73-65.67,46.76,65Zm0-66.41,242.23,63.06-194.94,2.7Zm215.59,6.58,157.75-19.39L600.07,483.69ZM731,407.78l136.31.44-25.85,88.54ZM838.63,510,842,498.48l7.78,6.27Zm19.61.27L851.65,505l25.45-12Zm24.38-21,88-80.77L1007.11,397l10.65,28.47Zm125.44-92.53,211.29-66.34-200.68,94.68Z"/></g></g></svg>