<svg xmlns="http://www.w3.org/2000/svg" viewBox="0 0 511.39 1618.58"><defs><style>.cls-1{fill:#96cfd8;}</style></defs><title>lines-md-right</title><g id="Layer_2" data-name="Layer 2"><g id="Layer_1-2" data-name="Layer 1"><path class="cls-1" d="M507.62,1618.09l-.08.49L49.24,1537.9l.08-.49-.37-.33,38.22-42.73L.2,1476.2l.1-.49-.3-.4,326.7-249L113,1144.69l.18-.47-.47-.18,78.93-213.26.47.17-.14-.47,215.28-62.87-.44-137.94L329.7,516.3l.47-.17-.43-.24,89.74-163.17-103-197.89.45-.23-.32-.39L492,12.35l0-1.92h1l0,1.1L507.31,0l.63.78L493,12.84l-1.48,107,16.92-54.7,1,.29-17.92,58-2.31,166.49,21.43-19.26.66.75-22.11,19.87L488.31,353l22.64.25,0,1L488.29,354l-.64,46.73,23.58,17-.58.81-23-16.56L484.9,598.75,510.61,576l.66.75-24.89,22,24.42-7,.28,1L485.7,600l23.85,13-.48.88-24.5-13.3L409.15,727.42l101.47-82.48.63.77L408,729.65l89.82,111.5,13-3.79.14.48.45.21-5.94,12.6,5.88,7.3-.39.31.37.34-19.78,21.54-65.09,138,84.67,31.68-.35.94L426,1019l-97,205.52,178.27-135.87.61.8-179.64,136.9,179.79,391.51Zm-457.33-81,456.48,80.36-18-39.24L88.3,1494.59ZM408.05,970.35Zm-42.93,25.89L253,1062.36l74.63,162.52,68.19-217.17Zm31,10.51,11.09-35.31-40.95,24.14Zm-143.54,54.7,111.37-65.67L193,931.85ZM192.13,932.26l-78,210.81L251.69,1062Zm296.1,644.8L327.54,1227.13,89.07,1493.73ZM87.94,1493.49l235.91-263.73L1.48,1475.44Zm238.73-268.25-74.56-162.37L114.3,1144.12ZM193.66,931,365,995.13l42.51-25.07-.32-101.41Zm214.88,38.06,82.15-89.49,13.59-28.79-6.84-8.49-89.22,26.05ZM434.4,509l.5.07-7.31,59.42,56,30.42L419.88,354.07l-88.83,161.5,103.32-7.08Zm-.57.54-101.91,7L426.65,568ZM331.09,517.2l76,210.24L426.52,569ZM492,13.65,317.53,154.73l102.4,196.69,70.56-228.16ZM490.44,126.8,421.06,351.15l67.11-60.33Zm-2.29,165.38-66.82,60.06,66,.74Zm-.86,61.8-65.67-.73,65,46.76Zm-66.41,0,63.06,242.23,2.7-194.94Zm6.58,215.59L408.07,727.28l75.62-127.21ZM407.78,731l.44,136.31,88.54-25.85ZM510,838.63,498.48,842l6.27,7.78Zm.27,19.61L505,851.65,493,877.1Zm-21,24.38-80.77,88L397,1007.11l28.47,10.65Zm-92.53,125.44-66.34,211.29,94.68-200.68Z"/></g></g></svg>