<svg xmlns="http://www.w3.org/2000/svg" viewBox="0 0 511.39 1618.58"><defs><style>.cls-1{fill:#96cfd8;}</style></defs><title>lines-md-left</title><g id="Layer_2" data-name="Layer 2"><g id="Layer_1-2" data-name="Layer 1"><path class="cls-1" d="M3.77,1618.09l.09.49,458.3-80.68-.09-.49.37-.33-38.21-42.73,87-18.15-.1-.49.3-.4-326.7-249,213.73-81.63-.18-.47.47-.18L319.78,930.78l-.47.17.14-.47L104.17,867.61l.44-137.94L181.69,516.3l-.47-.17.44-.24L91.91,352.72l103-197.89-.44-.23.31-.39L19.36,12.35l0-1.92h-1l0,1.1L4.08,0,3.45.78,18.37,12.84l1.48,107L2.93,65.17l-1,.29,17.92,58,2.31,166.49L.79,270.65l-.67.75,22.11,19.87L23.08,353l-22.63.25v1L23.1,354l.65,46.73-23.59,17,.58.81,23-16.56,2.73,196.81L.78,576l-.66.75,24.89,22-24.42-7-.28,1L25.7,600,1.84,613l.48.88,24.5-13.3,75.42,126.87L.77,644.94l-.63.77,103.27,83.94L13.59,841.15l-13-3.79-.14.48-.45.21,5.94,12.6L.06,858l.39.31-.37.34,19.78,21.54,65.09,138L.28,1049.79l.35.94L85.38,1019l97,205.52L4.07,1088.67l-.6.8,179.63,136.9L3.31,1617.88Zm457.33-81L4.62,1617.43l18-39.24,400.45-83.6ZM103.35,970.35Zm42.92,25.89,112.15,66.12-74.63,162.52L115.6,1007.71Zm-31,10.51-11.09-35.31,41,24.14Zm143.54,54.7L147.47,995.78l170.88-63.93Zm60.42-129.19,78,210.81L259.7,1062Zm-296.1,644.8,160.69-349.93,238.48,266.6Zm400.3-83.57L187.55,1229.76l322.37,245.68ZM184.72,1225.24l74.57-162.37,137.8,81.25ZM317.73,931,146.37,995.13l-42.52-25.07.32-101.41ZM102.85,969.07,20.7,879.58,7.12,850.79,14,842.3l89.22,26.05ZM77,509l-.5.07,7.31,59.42-56,30.42L91.51,354.07l88.83,161.5L77,508.49Zm.57.54,101.91,7L84.74,568ZM180.3,517.2l-76,210.24L84.87,569ZM19.38,13.65,193.86,154.73,91.46,351.42,20.9,123.26ZM21,126.8,90.33,351.15,23.22,290.82Zm2.29,165.38,66.82,60.06-66,.74ZM24.1,354l65.67-.73L24.74,400Zm66.41,0L27.45,596.17l-2.7-194.94ZM83.93,569.53l19.39,157.75L27.7,600.07ZM103.61,731l-.44,136.31L14.63,841.46ZM1.38,838.63,12.91,842l-6.27,7.78Zm-.27,19.61,5.31-6.59,12,25.45Zm21,24.38,80.77,88,11.46,36.51-28.47,10.65Zm92.53,125.44L181,1219.35,86.32,1018.67Z"/></g></g></svg>